inDegrees=yes
name=ik_S55_A03_T02
DataType=double
version=3
OpenSimVersion=4.3-2021-08-27-4bc7ad9
endheader
time	pelvis_tilt	pelvis_list	pelvis_rotation	pelvis_tx	pelvis_ty	pelvis_tz	hip_flexion_r	hip_adduction_r	hip_rotation_r	knee_angle_r	knee_angle_r_beta	ankle_angle_r	subtalar_angle_r	mtp_angle_r	hip_flexion_l	hip_adduction_l	hip_rotation_l	knee_angle_l	knee_angle_l_beta	ankle_angle_l	subtalar_angle_l	mtp_angle_l	lumbar_extension	lumbar_bending	lumbar_rotation	arm_flex_r	arm_add_r	arm_rot_r	elbow_flex_r	pro_sup_r	wrist_flex_r	wrist_dev_r	arm_flex_l	arm_add_l	arm_rot_l	elbow_flex_l	pro_sup_l	wrist_flex_l	wrist_dev_l
0	0	0	0	0	0.9399999999999999	0	0	0	0	0	0	0	0	0	0	0	0	0	0	0	0	0	0	0	0	0	0	0	0	89.99999999963507	0	0	0	0	0	0	89.99999999869995	0	0
0.02	0.6002835533226171	-0.3192414396651118	-71.73347686156792	0	0.9399999999999999	0	-0.06703252376153132	-1.806215150698517	-5.867674432776247	2.649731356169952	0.04624653645850022	0	0	0	3.664176034907072	-1.424990981756927	0.3766894192454464	4.957869589732436	0.08653114822533146	0	0	0	0	0	0	1.572735977481139	-1.572735977481139	0.2794884606394998	7.706085403914577	89.72051155541017	0	0	1.572735977481139	-1.572735977481139	0.2794884606394998	7.706085403914577	89.72051155452749	0	0
0.04	0.6007053095510364	-0.3165920059933943	-71.72838106118667	0	0.9399999999999999	0	-0.06644072828868702	-1.799967507624818	-5.864293912190114	2.65019308766671	0.04625459519337881	0	0	0	3.660334851778646	-1.431818225315428	0.3780420366702857	4.982450970492319	0.08696017425427779	0	0	0	0	0	0	2.405666970668098	-2.405666970668097	0.4321618328186086	10.80299887332221	89.56783819219811	0	0	2.405666970668098	-2.405666970668097	0.4321618328186086	10.80299887332221	89.56783819134304	0	0
0.06	0.5951713312094872	-0.306135124978823	-71.73489749609604	0	0.9399999999999999	0	-0.05867939411676162	-1.792165746878411	-5.871796191941754	2.667617876859258	0.04655871513625471	0	0	0	3.686978514646088	-1.422055777697109	0.373306744486088	5.015455491801758	0.08753621181917214	0	0	0	0	0	0	3.411319127710933	-3.411319127710932	0.6181212082808613	14.4342814887043	89.3818788276844	0	0	3.411319127710933	-3.411319127710932	0.6181212082808613	14.4342814887043	89.38187882686414	0	0
0.08	0.5957083176012323	-0.3122441233827234	-71.73592519054117	0	0.9399999999999999	0	-0.09415076333368978	-1.799975157134893	-5.865507930347125	2.609371593905665	0.04554212572166626	0	0	0	3.682694737300908	-1.435581079924454	0.3725135838628704	5.002747761127741	0.08731442007845386	0	0	0	0	0	0	3.7766863405509	-3.7766863405509	0.6850487782122558	15.66107858966805	89.31495126168635	0	0	3.7766863405509	-3.7766863405509	0.6850487782122558	15.66107858966805	89.31495126087701	0	0
0.1	0.595751391899901	-0.312216529883149	-71.73367498926909	0	0.9399999999999999	0	-0.08705414350369041	-1.797293985632705	-5.863371052730066	2.627203555970565	0.04585335217178949	0	0	0	3.671367351810532	-1.43173090637249	0.3770200819897074	4.980304892003968	0.08692271811864985	0	0	0	0	0	0	3.993713197295437	-3.993713197295437	0.7243186314698491	16.36626690249463	89.27568141072976	0	0	3.993713197295437	-3.993713197295437	0.7243186314698491	16.36626690249463	89.27568140992734	0	0
0.12	0.5927596486307187	-0.305808013806455	-71.75299763181798	0	0.9399999999999999	0	-0.08004776465211753	-1.791866185395865	-5.839651629957237	2.625415662674127	0.0458221475470923	0	0	0	3.684924702066635	-1.433352895566332	0.3562641912928793	5.010798125777667	0.08745492544758124	0	0	0	0	0	0	4.15637762209868	-4.156377622098679	0.7535221607313088	16.78830719076184	89.24647788317525	0	0	4.15637762209868	-4.156377622098679	0.7535221607313088	16.78830719076184	89.24647788237809	0	0
0.14	0.5863493156585162	-0.2894449373004229	-71.74589897428781	0	0.9399999999999999	0	-0.07190696459245166	-1.785995425489744	-5.846020542882444	2.6214154938667	0.04575233143076714	0	0	0	3.712956813730019	-1.436754863319841	0.3572581760028392	4.990159216002557	0.08709470851798354	0	0	0	0	0	0	4.337791756997121	-4.33779175699712	0.7862123805205669	17.32211737465444	89.21378766529867	0	0	4.337791756997121	-4.33779175699712	0.7862123805205669	17.32211737465444	89.21378766450781	0	0
0.16	0.5899020469678036	-0.2977493148862633	-71.75389820713809	0	0.9399999999999999	0	-0.08706902930404796	-1.777316934390928	-5.85718563588258	2.607684556626909	0.04551268136654808	0	0	0	3.67973607870771	-1.427388894448412	0.3583498386083788	4.990337341584469	0.08709781739586991	0	0	0	0	0	0	4.48425825543639	-4.484258255436389	0.8124141798245942	17.71258684452686	89.18758586752475	0	0	4.48425825543639	-4.484258255436389	0.8124141798245942	17.71258684452686	89.18758586673879	0	0
0.18	0.5689186900546902	-0.2199835435667271	-71.75657266363456	0	0.9399999999999999	0	0.04361016254404364	-1.783958641490376	-5.902765169828085	2.720571073014297	0.04748292275861454	0	0	0	3.817911987203304	-1.445186447126936	0.3453929786827644	5.153947340881847	0.08995335057279477	0	0	0	0	0	0	4.629050119467806	-4.629050119467805	0.8385424369208575	18.17020130627828	89.16145761195808	0	0	4.629050119467806	-4.629050119467805	0.8385424369208575	18.17020130627828	89.16145761117704	0	0
0.2	0.582075502205473	-0.2441383817368609	-71.7765013675062	0	0.9399999999999999	0	0.01903908359742359	-1.781007544437518	-5.911823861777594	2.792527288837411	0.04873879564200351	0	0	0	3.788423945987204	-1.432276016314026	0.3181852524972592	5.208959067544249	0.09091348633026083	0	0	0	0	0	0	4.722746295662814	-4.722746295662813	0.8556691943465589	18.52625975918926	89.1443308555385	0	0	4.722746295662814	-4.722746295662813	0.8556691943465589	18.52625975918926	89.14433085476065	0	0
0.22	0.5953203787544503	-0.2371188950448647	-71.79438819558899	0	0.9399999999999999	0	0.01606923397947106	-1.782748618156579	-5.930044466982223	2.804974610307106	0.04895604238470388	0	0	0	3.788631228806967	-1.41808656626862	0.3040522526930808	5.226568071311276	0.09122082142399156	0	0	0	0	0	0	4.817045756610847	-4.817045756610847	0.8728095792180282	18.86318246121578	89.12719047167246	0	0	4.817045756610847	-4.817045756610847	0.8728095792180282	18.86318246121578	89.12719047089787	0	0
0.24	0.6030533970245169	-0.2516036603548898	-71.79882592077071	0	0.9399999999999999	0	-0.03610154461914193	-1.759374519385505	-5.923524559008693	2.675885035618372	0.04670300427638634	0	0	0	3.740926198270969	-1.415079012840009	0.3210232922077678	5.073121966017689	0.08854268166225657	0	0	0	0	0	0	4.928190548360282	-4.928190548360282	0.8935829652003854	19.44130687812282	89.10641708691793	0	0	4.928190548360282	-4.928190548360282	0.8935829652003854	19.44130687812282	89.1064170861472	0	0
0.26	0.6224327785329833	-0.2741191734078398	-71.86784473240211	0	0.9399999999999999	0	-0.06417174118173434	-1.77020559058672	-5.833042307595863	2.654596667664123	0.04633145216320864	0	0	0	3.69247256497221	-1.401991733802257	0.2318390741751368	5.086924159631288	0.08878357538481159	0	0	0	0	0	0	5.077756789320826	-5.077756789320826	0.9201882716329167	19.90402987521844	89.07981178203752	0	0	5.077756789320826	-5.077756789320826	0.9201882716329167	19.90402987521844	89.07981178127207	0	0
0.28	0.6205317978746406	-0.2673501374984014	-71.85514157419161	0	0.9399999999999999	0	-0.05985121659915228	-1.778369262619375	-5.850690753529195	2.698365266556581	0.04709535832286676	0	0	0	3.706873272120361	-1.404687249462266	0.2579067841622389	5.158672064655944	0.09003581255890002	0	0	0	0	0	0	5.450681700573677	-5.450681700573677	0.986592641297506	21.13808535182007	89.0134074162487	0	0	5.450681700573677	-5.450681700573677	0.986592641297506	21.13808535182007	89.01340741549596	0	0
0.3	0.6341163855756334	-0.2645678068897138	-71.8832619562467	0	0.9399999999999999	0	-0.08750248748305613	-1.778195906102878	-5.842452919703236	2.687512734078453	0.04690594589894383	0	0	0	3.770667621950111	-1.352452013371999	0.2970822120026143	5.251325026601878	0.09165291180658157	0	0	0	0	0	0	5.881934710817576	-5.881934710817576	1.063822474602217	22.68431987884544	88.93617758745879	0	0	5.881934710817576	-5.881934710817576	1.063822474602217	22.68431987884544	88.93617758672056	0	0
0.32	0.6302208553271719	-0.2853157679770372	-71.9103180912785	0	0.9399999999999999	0	-0.1005787180031575	-1.786021000182603	-5.836980775372499	2.692514640436897	0.04699324563377511	0	0	0	3.795289637279145	-1.338996710604811	0.3862824866329849	5.266223390935476	0.09191293731736457	0	0	0	0	0	0	5.883192089941512	-5.883192089941512	1.064055275256652	22.69067928870439	88.9359447868181	0	0	5.883192089941512	-5.883192089941512	1.064055275256652	22.69067928870439	88.93594478607989	0	0
0.34	0.6554128673912009	-0.3353594272182703	-71.9407991450682	0	0.9399999999999999	0	-0.1664193384595642	-1.784725715480899	-5.855412778946357	2.689435575322813	0.04693950580965105	0	0	0	3.727072816769302	-1.323345914034926	0.3519991627829767	5.36078985381813	0.09356343345663189	0	0	0	0	0	0	6.010280133448119	-6.010280133448119	1.086386997101174	23.07202854127939	88.9136130662728	0	0	6.010280133448119	-6.010280133448119	1.086386997101174	23.07202854127939	88.91361306553878	0	0
0.36	0.6545708733642858	-0.3042566485522294	-71.9864799371569	0	0.9399999999999999	0	-0.1261939389681134	-1.808689371460426	-5.82018338064438	2.751121469487374	0.04801612776485939	0	0	0	3.952661180233234	-1.275899106881631	0.4195310777879511	5.611286193816454	0.09793541935379781	0	0	0	0	0	0	6.019169611979613	-6.019169611979613	1.088038207287785	23.11717757412863	88.91196185618367	0	0	6.019169611979613	-6.019169611979613	1.088038207287785	23.11717757412863	88.91196185544995	0	0
0.3800000000000001	0.6600561513533775	-0.3350337854500796	-72.06669805476271	0	0.9399999999999999	0	-0.1556626648961582	-1.812000802544997	-5.789905911998169	2.760938436212916	0.04818746615677883	0	0	0	3.988306237263115	-1.28852928790482	0.4992860024098893	5.643090197392536	0.09849050393151648	0	0	0	0	0	0	6.020342710470801	-6.020342710470801	1.088254654091549	23.12300969940741	88.91174540939267	0	0	6.020342710470801	-6.020342710470801	1.088254654091549	23.12300969940741	88.911745408659	0	0
0.4000000000000001	0.6649088449408705	-0.3420246696515692	-72.11156991716405	0	0.9399999999999999	0	-0.1636484938575185	-1.819362028394456	-5.814343067309753	2.802667513212549	0.04891577594424067	0	0	0	4.122180017065487	-1.325011048115998	0.5907577631976205	5.945216416662896	0.1037636012143866	0	0	0	0	0	0	6.026439844127627	-6.026439844127627	1.089386933783462	23.15391936509775	88.91061312976761	0	0	6.026439844127627	-6.026439844127627	1.089386933783462	23.15391936509775	88.91061312903412	0	0
0.4200000000000001	0.6744676607569106	-0.3681616765105555	-72.16432792785773	0	0.9399999999999999	0	-0.2091918837120895	-1.831700537002421	-5.791811958302011	2.816158272386642	0.04915123411042221	0	0	0	4.233485738418731	-1.326856104595835	0.6082101378698769	5.965811454996523	0.1041230524428828	0	0	0	0	0	0	6.027500920093751	-6.027500920093751	1.08958164133013	23.15910475852166	88.91041842223242	0	0	6.027500920093751	-6.027500920093751	1.08958164133013	23.15910475852166	88.91041842149896	0	0
0.4400000000000001	0.7050693974428414	-0.3769337575304254	-72.25609865041207	0	0.9399999999999999	0	-0.2040384885719902	-1.887295515902391	-5.744388298233043	2.887676895452846	0.05039946955942024	0	0	0	4.435839694593165	-1.337153108951078	0.6191849469745174	6.534023895107182	0.1140402303736049	0	0	0	0	0	0	6.034142867661526	-6.034142867661526	1.090813178954732	23.19258418009461	88.90918688468045	0	0	6.034142867661526	-6.034142867661526	1.090813178954732	23.19258418009461	88.90918688394731	0	0
0.4600000000000001	0.7183568929618809	-0.3891035847407687	-72.36273050159083	0	0.9399999999999999	0	-0.219742508197364	-1.909084841904933	-5.692135200770474	2.927892547352646	0.05110136509590765	0	0	0	4.6610013445133	-1.330082778622652	0.5925136671600795	6.923736075854086	0.1208419910627657	0	0	0	0	0	0	6.041444292801724	-6.041444292801724	1.092167857014746	23.22943675606626	88.90783220670035	0	0	6.041444292801724	-6.041444292801724	1.092167857014746	23.22943675606626	88.90783220596744	0	0
0.4800000000000001	0.7355450747833745	-0.404902260499905	-72.50187419273497	0	0.9399999999999999	0	-0.2334951837919814	-1.956369591432977	-5.645677896433112	2.983865047055588	0.05207826950629554	0	0	0	4.963269103090685	-1.257652304778953	0.6285172667612746	7.430981471563644	0.129695093333479	0	0	0	0	0	0	6.048450778849413	-6.048450778849413	1.093468325214903	23.26481488052642	88.90653173857692	0	0	6.048450778849413	-6.048450778849413	1.093468325214903	23.26481488052642	88.90653173784425	0	0
